<?xml version="1.0" standalone="no"?>
<!DOCTYPE svg PUBLIC "-//W3C//DTD SVG 20010904//EN"
 "http://www.w3.org/TR/2001/REC-SVG-20010904/DTD/svg10.dtd">
<svg version="1.0" xmlns="http://www.w3.org/2000/svg"
 width="512.000000pt" height="512.000000pt" viewBox="0 0 512.000000 512.000000"
 preserveAspectRatio="xMidYMid meet">

<g transform="translate(0.000000,512.000000) scale(0.100000,-0.100000)"
fill="#000000" stroke="none">
<path d="M1114 5109 c-53 -15 -127 -72 -156 -119 -16 -26 -33 -72 -38 -105
-11 -65 -14 -913 -4 -963 13 -62 69 -95 125 -72 37 16 48 35 60 112 16 101 63
167 152 215 49 27 189 25 243 -4 52 -28 120 -104 136 -152 7 -23 13 -147 15
-356 4 -306 5 -321 25 -342 45 -49 126 -33 147 28 7 21 11 137 11 329 0 331 4
356 66 428 89 104 257 125 363 45 50 -38 69 -60 94 -113 l22 -45 3 -826 3
-827 26 -26 c35 -36 90 -36 124 0 l24 26 5 1056 5 1057 28 100 c36 131 120
301 197 395 34 41 72 96 86 123 l24 47 -877 -1 c-494 0 -892 -5 -909 -10z"/>
<path d="M3090 5108 c0 -31 -95 -201 -150 -267 -60 -73 -109 -156 -136 -233
l-13 -38 1062 2 1062 3 49 25 c171 87 207 302 72 436 -88 89 -29 84 -1053 84
-689 0 -893 -3 -893 -12z"/>
<path d="M1740 2553 c-149 -6 -488 -34 -633 -54 -639 -85 -1107 -256 -1107
-403 0 -35 93 -112 192 -160 269 -128 694 -217 1278 -268 198 -18 1066 -17
1260 0 631 56 1135 170 1361 308 75 45 109 86 109 129 0 128 -402 284 -951
370 -163 26 -416 55 -475 55 l-34 0 0 -107 c0 -87 -4 -117 -21 -153 -53 -116
-177 -183 -299 -160 -159 30 -230 143 -230 367 l0 83 -187 -2 c-104 -1 -222
-3 -263 -5z"/>
<path d="M20 1818 c0 -21 44 -225 64 -294 160 -569 563 -1048 1101 -1309 205
-100 411 -163 640 -196 115 -17 433 -17 550 -1 519 74 977 320 1311 706 220
254 373 546 452 864 30 116 48 222 39 222 -2 0 -47 -20 -98 -44 -355 -168
-952 -271 -1704 -296 -936 -31 -1842 92 -2273 309 -45 23 -82 40 -82 39z"/>
</g>
</svg>
